<svg width="15" height="16" viewBox="0 0 15 16" fill="none" xmlns="http://www.w3.org/2000/svg">
<g clip-path="url(#clip0_11_20085)">
<path d="M7.66277 3.46736C7.61915 3.42563 7.56112 3.40234 7.50075 3.40234C7.44039 3.40234 7.38236 3.42563 7.33874 3.46736L1.94519 8.61979C1.92228 8.64171 1.90406 8.66804 1.89162 8.69719C1.87919 8.72635 1.87279 8.75773 1.87283 8.78942L1.87195 13.6252C1.87195 13.8738 1.97072 14.1123 2.14654 14.2881C2.32235 14.4639 2.56081 14.5627 2.80945 14.5627H5.62488C5.7492 14.5627 5.86842 14.5133 5.95633 14.4254C6.04424 14.3375 6.09363 14.2182 6.09363 14.0939V10.1095C6.09363 10.0474 6.11832 9.98777 6.16227 9.94381C6.20623 9.89986 6.26584 9.87517 6.328 9.87517H8.67175C8.73391 9.87517 8.79352 9.89986 8.83748 9.94381C8.88143 9.98777 8.90613 10.0474 8.90613 10.1095V14.0939C8.90613 14.2182 8.95551 14.3375 9.04342 14.4254C9.13133 14.5133 9.25056 14.5627 9.37488 14.5627H12.1891C12.4378 14.5627 12.6762 14.4639 12.852 14.2881C13.0279 14.1123 13.1266 13.8738 13.1266 13.6252V8.78942C13.1267 8.75773 13.1203 8.72635 13.1078 8.69719C13.0954 8.66804 13.0772 8.64171 13.0543 8.61979L7.66277 3.46736Z" fill="#4FD1C5"/>
<path d="M14.3824 7.65381L12.191 5.55732V2.37598C12.191 2.25166 12.1416 2.13243 12.0537 2.04452C11.9658 1.95661 11.8465 1.90723 11.7222 1.90723H10.316C10.1917 1.90723 10.0724 1.95661 9.98452 2.04452C9.89661 2.13243 9.84722 2.25166 9.84722 2.37598V3.31348L8.15035 1.69102C7.99156 1.53047 7.75543 1.43848 7.50025 1.43848C7.24596 1.43848 7.01041 1.53047 6.85162 1.69131L0.620177 7.65322C0.437951 7.829 0.415099 8.11816 0.580919 8.30859C0.622559 8.35666 0.673545 8.39575 0.730772 8.42349C0.788 8.45122 0.850273 8.46703 0.913802 8.46993C0.977331 8.47284 1.04079 8.46278 1.10031 8.44039C1.15983 8.41799 1.21417 8.38371 1.26002 8.33965L7.33912 2.53066C7.38274 2.48894 7.44077 2.46565 7.50113 2.46565C7.56149 2.46565 7.61953 2.48894 7.66314 2.53066L13.7428 8.33965C13.8324 8.42553 13.9523 8.4724 14.0764 8.46998C14.2005 8.46757 14.3185 8.41606 14.4046 8.32676C14.5845 8.14043 14.5696 7.83281 14.3824 7.65381Z" fill="#4FD1C5"/>
</g>
<defs>
<clipPath id="clip0_11_20085">
<rect width="15" height="15" fill="white" transform="translate(-0.00012207 0.5)"/>
</clipPath>
</defs>
</svg>
