<svg width="15" height="16" viewBox="0 0 15 16" fill="none" xmlns="http://www.w3.org/2000/svg">
<path d="M13.9934 1.62154C13.988 1.59562 13.9754 1.57178 13.957 1.55278C13.9386 1.53379 13.9151 1.52045 13.8894 1.51431C12.1735 1.09478 8.20871 2.5898 6.06066 4.73696C5.67754 5.11699 5.32827 5.52968 5.01682 5.97036C4.35442 5.91177 3.69201 5.96069 3.12746 6.20679C1.53459 6.90786 1.07082 8.73716 0.941623 9.52407C0.934295 9.56714 0.937059 9.61133 0.949699 9.65315C0.962338 9.69497 0.984508 9.73329 1.01447 9.76509C1.04442 9.79689 1.08135 9.82131 1.12234 9.83643C1.16333 9.85154 1.20727 9.85694 1.25071 9.8522L3.80861 9.57007C3.81044 9.76292 3.82208 9.95555 3.84348 10.1472C3.85635 10.2803 3.91543 10.4047 4.01047 10.4988L5.001 11.487C5.09516 11.5819 5.2195 11.6409 5.35256 11.654C5.54315 11.6753 5.73471 11.6869 5.92648 11.6888L5.64582 14.2435C5.64114 14.2869 5.64658 14.3308 5.66171 14.3718C5.67685 14.4128 5.70127 14.4497 5.73306 14.4796C5.76485 14.5095 5.80314 14.5317 5.84493 14.5444C5.88673 14.557 5.93088 14.5599 5.97395 14.5526C6.75939 14.4266 8.59191 13.9628 9.28889 12.37C9.53498 11.8054 9.58537 11.1462 9.52853 10.4871C9.97028 10.1756 10.3841 9.82622 10.7652 9.44292C12.9199 7.29897 14.4065 3.42271 13.9934 1.62154ZM8.61535 6.8853C8.41859 6.68867 8.28457 6.4381 8.23023 6.16529C8.1759 5.89248 8.20369 5.60969 8.3101 5.35267C8.41651 5.09566 8.59675 4.87598 8.82803 4.72142C9.0593 4.56686 9.33122 4.48436 9.60939 4.48436C9.88756 4.48436 10.1595 4.56686 10.3908 4.72142C10.622 4.87598 10.8023 5.09566 10.9087 5.35267C11.0151 5.60969 11.0429 5.89248 10.9886 6.16529C10.9342 6.4381 10.8002 6.68867 10.6034 6.8853C10.473 7.01596 10.318 7.11962 10.1474 7.19034C9.97688 7.26106 9.79404 7.29746 9.60939 7.29746C9.42475 7.29746 9.24191 7.26106 9.07134 7.19034C8.90077 7.11962 8.74582 7.01596 8.61535 6.8853Z" fill="#4FD1C5"/>
<path d="M4.93359 12.2028C4.77305 12.3636 4.51553 12.4263 4.20557 12.4799C3.50918 12.5986 2.89424 11.9968 3.01934 11.2928C3.06709 11.0259 3.2083 10.6518 3.29619 10.5639C3.3154 10.5451 3.32819 10.5207 3.33273 10.4941C3.33728 10.4676 3.33336 10.4403 3.32152 10.4162C3.30968 10.392 3.29053 10.3722 3.26679 10.3595C3.24305 10.3469 3.21592 10.342 3.18926 10.3457C2.79983 10.3933 2.43754 10.5699 2.16006 10.8472C1.47129 11.5366 1.40625 14.0945 1.40625 14.0945C1.40625 14.0945 3.96562 14.0294 4.65439 13.3401C4.93261 13.0628 5.10939 12.7 5.15625 12.31C5.16709 12.1875 5.01797 12.1146 4.93359 12.2028Z" fill="#4FD1C5"/>
</svg>
